<svg xmlns="http://www.w3.org/2000/svg" viewBox="0 0 125.43 146.8"><defs><style>.cls-1{fill:#fff0bf;}</style></defs><title>clock</title><g id="Layer_2" data-name="Layer 2"><g id="Layer_1-2" data-name="Layer 1"><path class="cls-1" d="M62.71,138.78a62.71,62.71,0,1,1,62.71-62.71A62.79,62.79,0,0,1,62.71,138.78Zm0-118.57a55.85,55.85,0,1,0,55.85,55.85A55.92,55.92,0,0,0,62.71,20.22Z"/><path class="cls-1" d="M80.73,9.07S107,16.5,115.47,31.65c0,0,11.86-16.58-2.72-27.16S86.45,4.78,80.73,9.07Z"/><path class="cls-1" d="M46.93,9.07S20.62,16.5,12.19,31.65c0,0-11.86-16.58,2.72-27.16S41.22,4.78,46.93,9.07Z"/><rect class="cls-1" x="25.28" y="131.06" width="16.47" height="11.44" transform="translate(-96.95 83.75) rotate(-54.11)"/><rect class="cls-1" x="86.41" y="128.55" width="11.44" height="16.47" transform="translate(-62.69 79.97) rotate(-35.89)"/><circle class="cls-1" cx="61.77" cy="76.07" r="6.76"/><polygon class="cls-1" points="45.95 39.91 53.54 69.31 60.93 66.68 45.95 39.91"/><polygon class="cls-1" points="70.32 76.07 68.52 82.83 87.3 84.26 70.32 76.07"/><rect class="cls-1" x="58.69" y="119.75" width="6.86" height="15.11"/><rect class="cls-1" x="87.16" y="112.43" width="4.58" height="16.43" transform="matrix(0.81, -0.59, 0.59, 0.81, -53.68, 75.15)"/><rect class="cls-1" x="105.98" y="91.7" width="4.58" height="18.43" transform="matrix(0.55, -0.84, 0.84, 0.55, -35.54, 135.9)"/><rect class="cls-1" x="106.34" y="72.73" width="15.66" height="6.86"/><rect class="cls-1" x="99.45" y="46.86" width="14.33" height="4.57" transform="translate(-9.72 64.89) rotate(-32.46)"/><rect class="cls-1" x="81.6" y="28.32" width="13.49" height="4.57" transform="matrix(0.55, -0.84, 0.84, 0.55, 14.18, 87.53)"/><rect class="cls-1" x="27.77" y="118.36" width="16.43" height="4.58" transform="translate(-82.9 79.22) rotate(-54.18)"/><rect class="cls-1" x="7.95" y="98.63" width="18.43" height="4.58" transform="translate(-52.65 26.05) rotate(-33.35)"/><rect class="cls-1" x="3.43" y="72.73" width="15.66" height="6.86"/><rect class="cls-1" x="16.53" y="41.98" width="4.57" height="14.33" transform="translate(-32.75 38.64) rotate(-57.53)"/><rect class="cls-1" x="34.8" y="23.86" width="4.57" height="13.49" transform="translate(-10.72 25.44) rotate(-33.37)"/><rect class="cls-1" x="57.58" y="17.28" width="6.86" height="13.32"/></g></g></svg>