<svg xmlns="http://www.w3.org/2000/svg" viewBox="0 0 309.76 545.53"><defs><style>.cls-1{fill:#2a444e;}.cls-2{fill:#537f85;}.cls-3{fill:#fff;}</style></defs><title>hardware-icon_1</title><g id="Layer_2" data-name="Layer 2"><g id="Layer_1-2" data-name="Layer 1"><path class="cls-1" d="M92,164.49H77.47a33.32,33.32,0,0,1-33.22-33.22V60.79A18.83,18.83,0,0,0,63,42H106.4a18.83,18.83,0,0,0,18.77,18.77v70.48A33.32,33.32,0,0,1,92,164.49Z"/><rect class="cls-1" x="17.43" y="108.37" width="292.33" height="437.16" rx="33.22" ry="33.22"/><path class="cls-2" d="M276.55,521.21H50.65a9,9,0,0,1-8.9-8.9V141.59a9,9,0,0,1,8.9-8.9h225.9a9,9,0,0,1,8.9,8.9V512.31A9,9,0,0,1,276.55,521.21ZM50.65,137.69a4,4,0,0,0-3.9,3.9V512.31a4,4,0,0,0,3.9,3.9h225.9a4,4,0,0,0,3.9-3.9V141.59a4,4,0,0,0-3.9-3.9Z"/><path class="cls-1" d="M16.09,266.61h0A16.14,16.14,0,0,1,0,250.51v-52.3a16.14,16.14,0,0,1,16.09-16.09h0a16.14,16.14,0,0,1,16.09,16.09v52.3A16.14,16.14,0,0,1,16.09,266.61Z"/><path class="cls-1" d="M16.09,369.19h0A16.14,16.14,0,0,1,0,353.1V300.8a16.14,16.14,0,0,1,16.09-16.09h0A16.14,16.14,0,0,1,32.18,300.8v52.3A16.14,16.14,0,0,1,16.09,369.19Z"/><rect class="cls-1" x="63.03" width="43.38" height="42.02"/><path class="cls-1" d="M105.84,0H63.58A6.59,6.59,0,0,0,57,6.59h0a6.59,6.59,0,0,0,6.59,6.59h42.26a6.59,6.59,0,0,0,6.59-6.59h0A6.59,6.59,0,0,0,105.84,0Z"/><path class="cls-3" d="M112.75,423.83q9.83-21.9,14.21-74.59,1.3-16,2.23-24.4a151,151,0,0,1,9.3-41.29,112.8,112.8,0,0,1,20.07-32.22l-.4-.89q-14.84,8.94-30.61,16.94l-16.4,8.54A91,91,0,0,0,83.3,300a32.13,32.13,0,0,0-6,24.89,19.8,19.8,0,0,0,7.11,12.51,15.37,15.37,0,0,0,12.83,2.86A19.49,19.49,0,0,0,111,329.53a29.68,29.68,0,0,0,2.77-20.25l-.85-4.47,1.07-.67.72,1.79a28.35,28.35,0,0,1,1.25,4,29.18,29.18,0,0,1-4.07,22.35,27.66,27.66,0,0,1-18.77,12.16,24.67,24.67,0,0,1-18.59-3.31,22.35,22.35,0,0,1-10.14-15.2A30.84,30.84,0,0,1,71.14,300q9.43-11.93,32.4-23.55,5-2.5,15.55-7.55a566.7,566.7,0,0,0,54.7-29.27l1.7,1.83a60.2,60.2,0,0,0-15.2,23.28,207.45,207.45,0,0,0-8.94,45.85q-.67,5.9-1.79,17.88-5.5,55.19-18.73,80.18,52.74-46.61,77.23-86.08T228.19,252a11.08,11.08,0,0,1-5.27-3.35,12.42,12.42,0,0,1-2.77-6,11,11,0,0,1,1.79-8.94,12.25,12.25,0,0,1,8-4.83,11.8,11.8,0,0,1,10.55,2.82,20.2,20.2,0,0,1,6,11.75Q252.1,273,219.65,318T115,425.3Z"/></g></g></svg>