<svg xmlns="http://www.w3.org/2000/svg" viewBox="0 0 370.53 370.53"><defs><style>.cls-1{fill:#ed1c24;}.cls-2{fill:#d0181f;}.cls-3{fill:#fff;}</style></defs><title>Asset 1</title><g id="Layer_2" data-name="Layer 2"><g id="_1" data-name="1"><circle class="cls-1" cx="185.27" cy="185.27" r="185.27"/><rect class="cls-2" x="162.8" y="57.56" width="28.27" height="56.53"/><polygon class="cls-2" points="208.1 145.98 208.1 134.74 201.21 134.74 201.21 117.35 176.93 117.35 152.65 117.35 152.65 134.74 145.77 134.74 145.77 145.98 176.93 145.98 208.1 145.98"/><path class="cls-2" d="M212.81,232V148.51H141.05V292h71.75Zm-4.71-5.19H145.77V164.46H208.1Z"/><polygon class="cls-2" points="198.67 223.89 198.67 197.07 186.72 197.07 186.72 168.08 178.74 168.08 170.77 168.08 170.77 197.07 158.81 197.07 158.81 223.89 178.74 223.89 198.67 223.89"/><rect class="cls-2" x="168.78" y="294.74" width="19.93" height="7.61"/><rect class="cls-3" x="171.13" y="62.87" width="28.27" height="56.53"/><polygon class="cls-3" points="209.54 140.06 209.54 122.66 185.27 122.66 160.99 122.66 160.99 140.06 154.1 140.06 154.1 151.29 185.27 151.29 216.43 151.29 216.43 140.06 209.54 140.06"/><path class="cls-3" d="M149.39,153.83v143.5h71.75V153.83Zm67,78.27H154.1V169.77h62.33Z"/><polygon class="cls-3" points="195.05 202.39 195.05 173.4 187.08 173.4 179.1 173.4 179.1 202.39 167.15 202.39 167.15 229.21 187.08 229.21 207.01 229.21 207.01 202.39 195.05 202.39"/><rect class="cls-3" x="177.11" y="300.05" width="19.93" height="7.61"/></g></g></svg>