<?xml version="1.0" encoding="utf-8"?>
<!-- Generator: Adobe Illustrator 20.0.0, SVG Export Plug-In . SVG Version: 6.00 Build 0)  -->
<svg version="1.1" id="Layer_1" xmlns="http://www.w3.org/2000/svg" xmlns:xlink="http://www.w3.org/1999/xlink" x="0px" y="0px"
	 viewBox="0 0 119 64.3" style="enable-background:new 0 0 119 64.3;" xml:space="preserve">
<style type="text/css">
	.st0{fill:#FFFFFF;}
</style>
<title>title</title>
<g id="Layer_2">
	<g id="Layer_1-2">
		
			<image style="overflow:visible;opacity:0.65;enable-background:new    ;" width="505" height="274" xlink:href="74E930E378EB12FD.png"  transform="matrix(0.2381 0 0 0.2374 0 0)">
		</image>
		<path class="st0" d="M19.8,54.9c1.4-3.3,2.5-8.8,3.2-16.7c0.2-2.4,0.4-4.2,0.5-5.5c0.3-3.2,1-6.3,2.1-9.2c1.1-2.6,2.6-5.1,4.5-7.2
			L30,16.1c-2.2,1.3-4.5,2.6-6.9,3.8l-3.7,1.9c-2.4,1.4-4.5,3.2-6.2,5.4c-1.2,1.6-1.7,3.6-1.3,5.6c0.2,1.1,0.7,2.1,1.6,2.8
			c0.8,0.6,1.9,0.9,2.9,0.6c1.3-0.3,2.5-1.2,3.1-2.4c0.7-1.4,0.9-3,0.6-4.5l-0.2-1l0.2-0.1l0.2,0.4c0.1,0.3,0.2,0.6,0.3,0.9
			c0.4,1.7,0.1,3.5-0.9,5c-1,1.5-2.5,2.4-4.2,2.7c-1.4,0.3-2.9,0-4.2-0.7c-1.2-0.8-2-2-2.2-3.4c-0.4-2.1,0.2-4.2,1.5-5.8
			c1.4-1.8,3.8-3.5,7.2-5.3c0.7-0.4,1.9-0.9,3.5-1.7c4.2-2,8.3-4.2,12.3-6.6l0.4,0.4c-1.5,1.4-2.7,3.2-3.4,5.2
			c-1.1,3.3-1.7,6.8-2,10.3c-0.1,0.9-0.2,2.2-0.4,4c-0.8,8.2-2.2,14.2-4.2,17.9c7.9-7,13.6-13.4,17.3-19.3
			c3.7-5.9,5.2-11.2,4.5-15.8c-0.5-0.1-0.9-0.4-1.2-0.8c-0.3-0.4-0.5-0.8-0.6-1.3c-0.2-0.7,0-1.4,0.4-2c0.4-0.6,1-0.9,1.7-1.1
			c0.8-0.2,1.7,0,2.4,0.6c0.7,0.7,1.2,1.6,1.3,2.6c0.8,4.4-1.2,10-6,16.7S31.1,46,20.3,55.2L19.8,54.9z"/>
		<path class="st0" d="M51,27.4c-0.4,0.6-0.9,1.2-1.5,1.7c-0.4,0.4-0.9,0.6-1.5,0.8c-0.5,0.1-1,0-1.4-0.3c-0.4-0.4-0.6-0.8-0.7-1.4
			c-0.1-0.7-0.1-1.3,0.1-2c0.2-0.7,0.4-1.4,0.8-2c0.5-0.8,1.1-1.5,1.8-2c0.6-0.5,1.4-0.8,2.1-1c0.4-0.1,0.8-0.1,1.2,0.1
			c0.4,0.2,0.6,0.5,0.8,0.9l0.3-1l2.2-0.5c-1.1,2.6-1.8,4.4-2.1,5.4c-0.3,0.6-0.4,1.3-0.4,1.9c0,0.2,0.1,0.3,0.2,0.4
			c0.1,0.1,0.3,0.1,0.4,0.1c0.5-0.1,1.2-0.8,2.2-2c1.1-1.5,2-3.1,2.9-4.8l0.2,0.1c-0.9,1.9-2.1,3.7-3.4,5.4
			c-0.6,0.9-1.6,1.5-2.6,1.8c-0.3,0.1-0.7,0-1-0.2c-0.3-0.2-0.5-0.6-0.6-0.9c0-0.1,0-0.2,0-0.3C51.1,27.5,51.1,27.4,51,27.4z
			 M49.2,28.9c0.4-0.1,0.8-0.4,1.1-0.7c0.4-0.5,0.7-1.1,1-1.7c0.4-0.7,0.6-1.5,0.8-2.4c0.1-0.7,0.2-1.3,0.1-2c0-0.3-0.2-0.6-0.4-0.8
			c-0.2-0.1-0.5-0.2-0.7-0.1c-0.5,0.1-0.9,0.4-1.2,0.7c-0.5,0.5-0.8,1-1.1,1.6c-0.3,0.7-0.6,1.4-0.7,2.2c-0.1,0.6-0.1,1.3,0,1.9
			c0,0.4,0.2,0.7,0.5,0.9C48.7,28.8,48.9,28.9,49.2,28.9z"/>
		<path class="st0" d="M60.9,15.1l2.1-0.5l-2,4.9c-0.2,0.5-0.4,1.1-0.7,1.6c-0.2,0.5-0.5,1.1-0.7,1.6h0.2c0.5-1.1,1.1-2.1,1.8-3
			c0.5-0.6,1.1-1,1.9-1.1c0.5-0.1,1,0,1.3,0.3c0.4,0.4,0.7,0.8,0.8,1.4c0.1,0.6,0.1,1.2-0.1,1.8c-0.2,0.7-0.5,1.4-0.9,2
			c1-0.4,1.8-1,2.6-1.8c0.8-0.8,1.5-1.7,2.1-2.7l0.2,0.1c-0.6,1-1.3,2-2.1,2.8c-0.8,0.8-1.8,1.4-2.8,1.9c-0.6,0.8-1.2,1.4-2,2
			c-0.6,0.5-1.3,0.8-2,1c-0.2,0-0.4,0-0.6-0.1c-0.2-0.1-0.3-0.2-0.3-0.4c0-0.4,0.2-0.8,0.5-1c0.9-0.5,1.8-0.9,2.8-1.2
			c0.3-0.8,0.6-1.5,0.7-2.3c0.1-0.6,0.1-1.2,0-1.9c0-0.3-0.2-0.6-0.4-0.8c-0.2-0.2-0.4-0.3-0.7-0.2c-0.5,0.1-1,0.6-1.7,1.6
			c-0.7,1.3-1.3,2.6-1.7,4l-3.6,10l-2,0.5L60.9,15.1z M62.7,24.9c-0.7,0.2-1.4,0.5-2,0.9c-0.4,0.3-0.6,0.7-0.5,1
			c0,0.1,0.1,0.2,0.2,0.3c0.1,0,0.2,0,0.3,0c0.4-0.1,0.7-0.4,0.9-0.7C62,25.9,62.4,25.4,62.7,24.9z"/>
		<path class="st0" d="M78.2,18.1c-0.8,1.9-2,3.6-3.4,5.1c-1,1.2-2.4,2-3.9,2.3c-0.7,0.1-1.4,0-1.9-0.3c-0.5-0.4-0.9-0.9-1-1.6
			c-0.1-0.8-0.1-1.5,0.2-2.3c0.3-0.8,0.7-1.6,1.3-2.3c0.5-0.6,1.1-1.1,1.7-1.5c0.6-0.4,1.2-0.6,1.9-0.8c0.5-0.1,1-0.1,1.4,0.1
			c0.4,0.1,0.6,0.5,0.7,0.9c0.1,0.7-0.2,1.3-1.1,2c-1.3,1-2.8,1.8-4.3,2.4v0.2c0,0.1,0,0.3,0,0.4c0.1,0.6,0.4,1.1,0.8,1.5
			c0.4,0.3,1,0.4,1.5,0.3c1.2-0.3,2.2-1,2.9-2c1.2-1.4,2.2-2.9,2.9-4.5L78.2,18.1z M69.9,22c1.1-0.5,2-1.2,2.8-2.1
			c0.6-0.6,0.9-1.4,0.8-2.3c0-0.3-0.3-0.5-0.6-0.5c0,0,0,0,0,0h-0.1C72,17.4,71.4,18,71,18.7C70.4,19.7,70,20.8,69.9,22z"/>
		<path class="st0" d="M82.5,18.1c0.1-0.4,0.1-0.8,0.2-1.2c0-0.2,0-0.5,0-0.8c0-0.2-0.1-0.5-0.3-0.7c-0.2-0.1-0.4-0.2-0.6-0.1
			c-0.4,0.1-0.7,0.3-1,0.7c-0.4,0.4-0.7,0.9-1,1.4c-0.3,0.6-0.6,1.3-0.8,2c-0.1,0.6-0.1,1.2,0,1.8c0.1,0.5,0.4,1,0.8,1.4
			c0.4,0.3,1,0.4,1.5,0.3c1.2-0.3,2.2-1,2.9-2c1.1-1.4,2-2.9,2.7-4.5h0.1c-0.8,1.9-1.9,3.6-3.3,5.1c-1,1.1-2.3,2-3.7,2.3
			c-0.7,0.2-1.5,0.1-2.1-0.3c-0.6-0.4-0.9-1-1-1.7c-0.1-0.7-0.1-1.4,0.2-2c0.3-0.8,0.7-1.5,1.2-2.1c0.5-0.7,1.2-1.3,1.9-1.7
			c0.6-0.4,1.3-0.7,2.1-0.9c0.5-0.1,1-0.1,1.5,0.1c0.4,0.2,0.6,0.5,0.7,0.9c0.1,0.4,0,0.9-0.3,1.3c-0.3,0.4-0.8,0.6-1.3,0.7h-0.2
			L82.5,18.1z"/>
		<path class="st0" d="M93.2,15.2c-0.8,1.8-1.8,3.4-3,5c-0.6,1-1.6,1.7-2.7,2.1c-0.4,0.1-0.8,0-1.1-0.2c-0.3-0.2-0.5-0.6-0.6-1
			c-0.1-0.3-0.1-0.7,0-1c0.1-0.5,0.2-0.9,0.4-1.3l1.7-4.5l2.2-0.4l-2.2,5.7c-0.1,0.3-0.2,0.7-0.3,1c0,0.2,0,0.5,0,0.8
			c0,0.1,0.1,0.3,0.2,0.3c0.1,0.1,0.3,0.1,0.4,0.1c0.5-0.1,1.3-0.7,2.2-1.9c1-1.5,1.9-3,2.7-4.6L93.2,15.2z M90.2,8.9
			c0.3-0.1,0.6,0,0.9,0.2c0.3,0.2,0.4,0.4,0.5,0.7c0.1,0.6-0.3,1.2-0.9,1.3c-0.3,0.1-0.6,0-0.9-0.2c-0.3-0.2-0.4-0.4-0.5-0.7
			C89.2,9.6,89.6,9,90.2,8.9z"/>
		<path class="st0" d="M99.4,14c-0.8,1.8-1.8,3.5-3,5.1c-0.7,1-1.7,1.7-2.9,2.1c-0.4,0.1-0.9,0.1-1.2-0.1c-0.3-0.2-0.6-0.6-0.6-1
			c-0.1-0.4-0.1-0.7,0-1.1c0.1-0.5,0.2-1,0.4-1.5l1.4-4.1l-1.6,0.3l0.1-0.3l1.6-0.3l1-2.7l2.2-0.6l-1.1,2.9l2.7-0.5l-0.1,0.3
			l-2.7,0.5L94,17.5c-0.2,0.5-0.3,1.1-0.4,1.6c-0.1,0.4-0.1,0.7-0.1,1.1c0,0.2,0.1,0.3,0.2,0.4c0.1,0.1,0.3,0.1,0.5,0.1
			c1-0.4,1.8-1.1,2.4-2c1.1-1.5,2-3.1,2.7-4.7H99.4z"/>
		<path class="st0" d="M95.3,22.4h-0.4c-0.5,0.1-1,0.4-1.2,0.9c-0.3,0.5-0.4,1.1-0.2,1.7c0.1,0.6,0.5,1.2,1,1.6
			c0.5,0.4,1.2,0.5,1.8,0.3c0.9-0.2,1.8-0.6,2.5-1.3c0.9-0.9,1.7-2,2.2-3.1c0.5-1.1,0.9-2.3,1.3-3.5c0.5-1.4,0.8-2.3,1-2.8h-0.1
			c-0.5,1-1.1,1.9-1.8,2.6c-0.5,0.5-1.2,0.9-1.9,1.1c-0.4,0.1-0.7,0-1.1-0.2c-0.3-0.2-0.5-0.6-0.6-0.9c0-1,0.1-2,0.5-2.9l0.1-0.3
			l1.3-3.7l2.2-0.5c-1,2.4-1.6,4.1-2,5.1c-0.3,0.7-0.4,1.4-0.4,2.1c0,0.2,0.1,0.3,0.3,0.4c0.1,0.1,0.3,0.1,0.5,0.1
			c0.7-0.1,1.4-1,2.3-2.5c1-1.8,1.8-3.7,2.2-5.7l2-0.5l-2.9,8.6c1.2-0.7,2.3-1.6,3.2-2.8c1.1-1.4,2-2.9,2.7-4.6h0.2
			c-0.7,1.7-1.6,3.3-2.7,4.7c-0.9,1.2-2.1,2.2-3.4,2.9c-0.6,2-1.7,3.8-3.2,5.2c-1.3,1.3-2.9,2.2-4.7,2.6c-1,0.3-2,0.2-3-0.2
			c-0.7-0.3-1.3-0.9-1.4-1.7c-0.2-0.7,0-1.5,0.5-2c0.6-0.6,1.4-1,2.2-1.1c0.3,0,0.5-0.1,0.8-0.1h0.1L95.3,22.4z"/>
		<path class="st0" d="M39.3,45.6c-0.4,0.6-0.9,1.2-1.5,1.7c-0.4,0.4-0.9,0.6-1.5,0.8c-0.5,0.1-1,0-1.4-0.3
			c-0.4-0.3-0.7-0.8-0.8-1.3c-0.1-0.7-0.1-1.3,0.1-2c0.2-0.7,0.4-1.4,0.8-2c0.5-0.8,1.1-1.5,1.8-2c0.6-0.5,1.4-0.8,2.1-1
			c0.4-0.1,0.8,0,1.2,0.1c0.4,0.2,0.6,0.5,0.8,0.9l0.3-1l2.2-0.5c-1.1,2.6-1.8,4.4-2.1,5.4c-0.3,0.6-0.4,1.3-0.4,2
			c0,0.2,0.1,0.3,0.2,0.4c0.1,0.1,0.3,0.1,0.4,0.1c0.5-0.1,1.2-0.8,2.2-2c1.1-1.5,2-3.1,2.9-4.8l0.2,0.1c-0.9,1.9-2.1,3.7-3.4,5.4
			c-0.6,0.9-1.6,1.6-2.6,1.9c-0.3,0.1-0.7,0-1-0.2c-0.3-0.2-0.5-0.6-0.5-0.9c0-0.1,0-0.2,0-0.3C39.2,45.9,39.2,45.8,39.3,45.6z
			 M37.4,47.2c0.4-0.1,0.8-0.4,1.1-0.7c0.4-0.5,0.7-1.1,1-1.7c0.4-0.7,0.6-1.5,0.8-2.3c0.2-0.7,0.2-1.3,0.1-2c0-0.3-0.2-0.6-0.4-0.8
			c-0.2-0.2-0.5-0.2-0.8-0.2c-0.5,0.1-0.9,0.4-1.2,0.7c-0.5,0.5-0.8,1-1.1,1.6c-0.3,0.7-0.6,1.4-0.7,2.2c-0.1,0.6-0.1,1.3,0,1.9
			c0,0.4,0.2,0.7,0.5,0.9C36.8,47.1,37.1,47.2,37.4,47.2z"/>
		<path class="st0" d="M49.1,33.3l2.1-0.5l-1.9,4.9c-0.2,0.5-0.4,1.1-0.7,1.6c-0.2,0.5-0.5,1.1-0.8,1.6H48c0.5-1.1,1.1-2.1,1.8-3
			c0.5-0.6,1.1-1,1.9-1.2c0.5-0.1,1,0,1.3,0.3c0.4,0.4,0.7,0.8,0.8,1.4c0.1,0.6,0.1,1.2-0.1,1.8c-0.2,0.7-0.5,1.4-0.9,2
			c1-0.4,1.8-1,2.6-1.8c0.8-0.8,1.5-1.7,2-2.7l0.2,0.1c-0.6,1-1.3,2-2.1,2.8c-0.8,0.8-1.8,1.4-2.8,1.8c-0.6,0.8-1.2,1.4-2,2
			c-0.6,0.5-1.3,0.8-2,1c-0.2,0.1-0.4,0-0.6-0.1c-0.2-0.1-0.3-0.2-0.3-0.4c0-0.4,0.2-0.8,0.5-1c0.9-0.5,1.9-0.9,2.8-1.1
			c0.3-0.8,0.6-1.5,0.7-2.3c0.1-0.6,0.1-1.2,0-1.9c0-0.3-0.2-0.6-0.4-0.8c-0.2-0.2-0.4-0.3-0.7-0.2c-0.5,0.1-1,0.6-1.7,1.7
			c-0.7,1.3-1.4,2.6-1.8,4l-3.6,10l-2,0.5L49.1,33.3z M50.9,43.1c-0.7,0.2-1.4,0.5-2,0.9c-0.4,0.3-0.6,0.7-0.5,1
			c0,0.1,0.1,0.2,0.2,0.3c0.1,0,0.2,0,0.3,0c0.4-0.1,0.7-0.4,0.9-0.7C50.2,44.2,50.6,43.7,50.9,43.1L50.9,43.1z"/>
		<path class="st0" d="M68.2,35.9c-0.3,0.5-0.6,1-1,1.4c-0.3,0.3-0.7,0.5-1.1,0.6c-0.3,0.1-0.6,0-0.9-0.1c-0.3-0.1-0.5-0.3-0.7-0.6
			c0,0.6-0.1,1.2-0.2,1.7c-0.2,0.6-0.4,1.2-0.8,1.7c-0.5,0.8-1.1,1.5-1.8,2c-0.7,0.5-1.4,0.8-2.2,1c-0.7,0.2-1.5,0.1-2.1-0.3
			c-0.6-0.4-1-1.1-1.1-1.8c-0.1-0.8,0-1.6,0.2-2.3c0.4-0.9,0.9-1.7,1.5-2.3c0.4-0.5,0.9-0.9,1.5-1.3c0.5-0.3,1.1-0.5,1.7-0.7
			c0.7-0.2,1.4-0.1,2,0.2c0.6,0.3,1,0.8,1.2,1.4c0.1,0.4,0.4,0.8,0.7,1.1c0.3,0.2,0.7,0.2,1,0.2c0.4-0.1,0.7-0.3,1-0.5
			C67.5,36.8,67.8,36.4,68.2,35.9L68.2,35.9z M61.2,35.2c-0.4,0.1-0.8,0.4-1.1,0.7c-0.4,0.5-0.8,1.1-1,1.7c-0.4,0.9-0.6,1.8-0.8,2.7
			c-0.1,0.7-0.2,1.5-0.1,2.2c0,0.3,0.2,0.6,0.4,0.9c0.2,0.2,0.5,0.3,0.8,0.2c0.5-0.1,0.9-0.4,1.2-0.8c0.5-0.6,0.8-1.3,1.1-2.1
			c0.3-0.8,0.5-1.6,0.7-2.5c0.1-0.7,0.1-1.3,0-2c0-0.3-0.2-0.7-0.4-0.9C61.7,35.1,61.4,35.1,61.2,35.2L61.2,35.2z"/>
		<path class="st0" d="M65.7,42.3l2.8-8.2l2.5-0.6c-0.4,0.9-0.7,1.7-1.1,2.5s-0.7,1.4-1,2l0.1,0.1c0.4-0.8,0.9-1.5,1.4-2.2
			c0.5-0.7,1.1-1.4,1.7-2c0.1-0.2,0.2-0.4,0.4-0.6c0.3-0.2,0.5-0.3,0.8-0.3l1.2-0.3c-0.2,0.5-0.4,1-0.5,1.6c-0.1,0.4-0.1,0.7,0,1.1
			c0,0.3,0.2,0.5,0.3,0.7c0.2,0.1,0.4,0.2,0.6,0.2c0.4-0.1,0.7-0.3,1-0.5c0.4-0.3,0.6-0.7,0.8-1.2l0.1,0.1c-0.3,0.6-0.7,1.1-1.2,1.5
			c-0.5,0.4-1,0.7-1.6,0.8c-0.5,0.1-1,0.1-1.4-0.2c-0.4-0.3-0.7-0.7-0.8-1.1c0-0.2-0.1-0.4-0.1-0.6c0-0.2,0-0.4,0.1-0.6
			c-1,0.9-1.8,2-2.4,3.2c-0.8,1.4-1.3,2.9-1.8,4.4L65.7,42.3z"/>
		<path class="st0" d="M75.9,38.2c-0.1,0.1-0.2,0.2-0.2,0.3c0,0.2,0,0.3,0,0.5c0,0.4,0.3,0.8,0.6,1c0.4,0.2,0.8,0.3,1.2,0.2
			c0.5-0.1,1-0.4,1.4-0.8c0.3-0.4,0.5-0.9,0.4-1.5c0-0.3-0.2-0.5-0.3-0.7c-0.2-0.3-0.5-0.6-0.8-0.9l-0.1-0.1c-0.6-0.4-1-1-1.2-1.7
			c-0.1-0.7,0.1-1.3,0.6-1.8c0.5-0.6,1.2-1,2-1.1c0.6-0.1,1.2-0.1,1.8,0.1c0.5,0.2,0.8,0.6,0.9,1.1c0.1,0.4,0,0.8-0.2,1.1
			c-0.2,0.3-0.6,0.6-1,0.6c-0.1,0-0.2,0-0.3,0c-0.1,0-0.2,0-0.4-0.1c0.1-0.3,0.2-0.6,0.2-0.8c0-0.2,0-0.5,0-0.7
			c-0.1-0.3-0.2-0.6-0.5-0.8c-0.4-0.4-1-0.3-1.4,0.1c-0.1,0.1-0.1,0.2-0.2,0.3c-0.2,0.3-0.2,0.7-0.1,1.1c0.1,0.3,0.1,0.5,0.3,0.7
			c0.2,0.3,0.5,0.6,0.7,0.8l0.2,0.2c0.6,0.5,1,1.1,1.2,1.8c0.1,0.5,0,1-0.2,1.4c-0.3,0.5-0.7,0.8-1.2,1.1v0.1
			c1.2-0.5,2.3-1.3,3.1-2.4c1.1-1.4,2-3,2.6-4.6h0.1c-0.7,1.9-1.7,3.7-3,5.3c-1.1,1.2-2.5,2-4.1,2.3c-0.8,0.2-1.6,0.1-2.4-0.2
			c-0.6-0.3-1-0.9-1.1-1.5c-0.1-0.5,0-1,0.2-1.4c0.2-0.4,0.6-0.6,1-0.7c0.5-0.1,1,0.2,1.1,0.7c0.1,0.2,0,0.5-0.1,0.7
			c-0.1,0.2-0.3,0.3-0.5,0.3C76.2,38.3,76.1,38.3,75.9,38.2L75.9,38.2z"/>
		<path class="st0" d="M82.8,42l-0.1-0.1c1.9-0.4,3.3-1.9,3.4-3.9c-0.1,0.1-0.2,0.2-0.3,0.3c-0.1,0.1-0.2,0.1-0.3,0.2
			c-0.2,0.1-0.5,0-0.7-0.1c-0.2-0.2-0.3-0.4-0.4-0.6c-0.1-0.3,0-0.6,0.2-0.9c0.2-0.3,0.5-0.4,0.8-0.5c0.3-0.1,0.7,0,1,0.2
			c0.3,0.2,0.5,0.6,0.5,1c0.1,1-0.3,2-1,2.6C85.2,41.1,84.1,41.7,82.8,42z"/>
		<path class="st0" d="M87.7,31.4l-0.1-0.3c0.7-0.1,1.2-0.2,1.5-0.3l1.4-0.3l0.1,0.3c-0.3,0.1-0.5,0.2-0.8,0.3
			c-0.1,0.1-0.1,0.2,0,0.4l0.2,1l0.6,3.1l1.4-0.3c0.2,0,0.3-0.1,0.4-0.1c0.1-0.1,0.2-0.2,0.2-0.3c0.1-0.3,0.2-0.6,0.3-0.9l0.3-0.1
			c-0.1,0.5-0.1,1-0.2,1.6c-1.1,0.2-1.9,0.3-2.6,0.5c-0.6,0.1-1.2,0.2-1.8,0.4l-0.1-0.3c0.2-0.1,0.5-0.2,0.7-0.3c0-0.1,0-0.1,0-0.2
			c0-0.1-0.1-0.7-0.3-1.8l-0.3-1.4v-0.2c0-0.2-0.1-0.5-0.2-0.7c0-0.1-0.1-0.1-0.1-0.1C88.2,31.4,87.9,31.4,87.7,31.4z"/>
		<path class="st0" d="M92.8,30.4l-0.1-0.3l1.5-0.3l1.4-0.3l0.1,0.3c-0.3,0.1-0.5,0.2-0.8,0.3c-0.1,0.1-0.1,0.2,0,0.4l0.2,1l0.6,3.1
			l1.3-0.3c0.2,0,0.3-0.1,0.4-0.1c0.1-0.1,0.2-0.2,0.2-0.3c0.1-0.3,0.2-0.6,0.3-0.8l0.3-0.1c-0.1,0.5-0.1,1-0.2,1.6
			c-1.1,0.2-1.9,0.3-2.6,0.5c-0.6,0.1-1.2,0.2-1.8,0.4l-0.1-0.3c0.2-0.1,0.5-0.2,0.7-0.3c0-0.1,0-0.1,0-0.2c0-0.1-0.1-0.7-0.3-1.8
			l-0.3-1.4v-0.2c0-0.2-0.1-0.5-0.2-0.7c0-0.1-0.1-0.1-0.1-0.1C93.2,30.4,93,30.4,92.8,30.4z"/>
		<path class="st0" d="M103.7,32.4l0.3,0.3c-0.3,0.3-0.7,0.6-1.1,0.8c-0.3,0.2-0.7,0.3-1.1,0.4c-0.7,0.2-1.5,0.1-2.1-0.3
			c-0.6-0.4-1-1.1-1.1-1.8c-0.2-0.8,0-1.6,0.4-2.2c0.5-0.7,1.3-1.1,2.1-1.2c0.3-0.1,0.6-0.1,0.9-0.1c0.4,0,0.7,0,1.1,0.1
			c0,0.2,0,0.3,0.1,0.5c0.1,0.2,0.2,0.7,0.3,1.1L103,30c-0.1-0.3-0.3-0.5-0.4-0.8c-0.1-0.2-0.3-0.3-0.6-0.4c-0.3-0.1-0.6-0.1-0.9,0
			c-0.5,0.1-0.9,0.3-1.2,0.8c-0.3,0.5-0.4,1.2-0.2,1.8c0.1,0.6,0.4,1.2,0.9,1.6c0.5,0.3,1,0.4,1.6,0.3
			C102.8,33,103.3,32.8,103.7,32.4z"/>
	</g>
</g>
</svg>
